# xmcd CD database file
#
# Track frame offsets:
#	150
#	32527
#	56513
#	78137
#	109337
#	140305
#	159225
#	187084
#	212755
#	243012
#
# Disc length: 3696 seconds
#
# Revision: 0
# Processed by: cddbd v1.5.2PL0 Copyright (c) Steve Scherf et al.
# Submitted via: CDex 1.70beta2
#
DISCID=790e6e0a
DTITLE=Rachel Therrien - On Track
DYEAR=2011
DGENRE=Jazz
TTITLE0=Yemaya a Montreal 
TTITLE1=Amadou
TTITLE2=Me Voy  
TTITLE3=Must Go On  
TTITLE4=Sala
TTITLE5=F.E.C. 
TTITLE6=What Is So 
TTITLE7=Soucy 
TTITLE8=Dada Blues
TTITLE9=Nostalgia  en el Frio
EXTD=YEAR: 2011
EXTT0=
EXTT1=
EXTT2=
EXTT3=
EXTT4=
EXTT5=
EXTT6=
EXTT7=
EXTT8=
EXTT9=
PLAYORDER=
